# xmcd CD database file
#
# Track frame offsets:
#	150
#	24952
#	45637
#	64950
#	84995
#	95812
#
# Disc length: 1573 seconds
#
# Revision: 0
# Processed by: cddbd v1.5PL3 Copyright (c) Steve Scherf et al.
# Submitted via: CDex 1.50
#
DISCID=45062306
DTITLE=原田知世 - BLUE IN BLUE
DYEAR=1900
DGENRE=JPop
TTITLE0=Silence Blue
TTITLE1=Honey Moon
TTITLE2=Tears of Joy
TTITLE3=白い朝
TTITLE4=蒼い夢
TTITLE5=冬の妖精
EXTD=
EXTT0=
EXTT1=
EXTT2=
EXTT3=
EXTT4=
EXTT5=
PLAYORDER=
